# xmcd CD database file
#
# Track frame offsets:
#	150
#	16827
#	27355
#	42252
#	63232
#	82250
#	94940
#	114287
#	129365
#	142477
#	155997
#	173480
#	192282
#	209695
#
# Disc length: 2967 seconds
#
# Revision: 0
# Processed by: cddbd v1.5.1PL0 Copyright (c) Steve Scherf et al.
# Submitted via: Feurio! 1.67 - http://www.feurio.com
#
DISCID=c80b950e
DTITLE=Waterloo and Robinson - Austrian Private Collection
DYEAR=1900
DGENRE=Oldies
TTITLE0=Cadilac Cafe
TTITLE1=Showtime 1910
TTITLE2=Take This Love Song
TTITLE3=Hollywood
TTITLE4=Eldorado
TTITLE5=My Little World
TTITLE6=Funky Donkey
TTITLE7=Was A Sunny Day
TTITLE8=I Wanna Be Alone
TTITLE9=Sailor, Sailor
TTITLE10=Please Love Me
TTITLE11=Mr. Tambourine Man
TTITLE12=Baby Blue
TTITLE13=Carnival Show
EXTD=
EXTT0=1977
EXTT1=1977
EXTT2=1977
EXTT3=1974
EXTT4=1977
EXTT5=1976
EXTT6=1977
EXTT7=1974
EXTT8=1974
EXTT9=1974
EXTT10=1975
EXTT11=1978
EXTT12=1974
EXTT13=1975
PLAYORDER=
